<svg xmlns="http://www.w3.org/2000/svg" viewBox="0 0 1200 630">
<defs><linearGradient id="bg" x1="0" y1="0" x2="0.4" y2="1"><stop offset="0" stop-color="#FFFCF0"/><stop offset="1" stop-color="#E6E4D9"/></linearGradient><linearGradient id="wave" x1="0" y1="0" x2="1" y2="0"><stop offset="0" stop-color="#205EA6"/><stop offset="1" stop-color="#24837B"/></linearGradient></defs><rect width="1200" height="630" fill="url(#bg)"/><g transform="translate(187.50,300.00) scale(0.22,-0.22)"><path d="M264.45098876953125 -14.831787109375Q191.7523193359375 -14.831787109375 140.15066528320312 15.561920166015625Q88.54901123046875 45.95562744140625 61.318878173828125 100.5794677734375Q34.0887451171875 155.20330810546875 34.0887451171875 228.2476806640625Q34.0887451171875 301.29205322265625 63.442718505859375 356.20794677734375Q92.79669189453125 411.12384033203125 144.7523193359375 441.8096008300781Q196.70794677734375 472.495361328125 264.45098876953125 472.495361328125Q337.85760498046875 472.495361328125 389.10528564453125 442.1016540527344Q440.35296630859375 411.70794677734375 467.5830993652344 357.2301330566406Q494.813232421875 302.7523193359375 494.813232421875 229.4158935546875Q494.813232421875 157.37152099609375 464.7513122558594 101.95562744140625Q434.68939208984375 46.53973388671875 382.7337646484375 15.853973388671875Q330.77813720703125 -14.831787109375 264.45098876953125 -14.831787109375ZM264.45098876953125 11.12384033203125Q292 11.12384033203125 311.38079833984375 31.314239501953125Q330.7615966796875 51.504638671875 341.0980224609375 99.0887451171875Q351.4344482421875 146.6728515625 351.4344482421875 229.4158935546875Q351.4344482421875 312.86688232421875 341.0980224609375 360.0129089355469Q330.7615966796875 407.158935546875 311.38079833984375 426.8493347167969Q292 446.53973388671875 264.45098876953125 446.53973388671875Q236.9019775390625 446.53973388671875 217.37515258789062 426.3493347167969Q197.84832763671875 406.158935546875 187.51190185546875 358.5748291015625Q177.17547607421875 310.99072265625 177.17547607421875 228.2476806640625Q177.17547607421875 145.79669189453125 187.51190185546875 98.15066528320312Q197.84832763671875 50.504638671875 217.37515258789062 30.814239501953125Q236.9019775390625 11.12384033203125 264.45098876953125 11.12384033203125Z" fill="#100F0F"/></g><g transform="translate(303.88,300.00) scale(0.22,-0.22)"><path d="M142.94635009765625 428V457.66357421875H309.9814453125V428ZM201.28277587890625 -14.831787109375Q140.12384033203125 -14.831787109375 105.7523193359375 15.977813720703125Q71.38079833984375 46.78741455078125 71.38079833984375 110.94635009765625Q71.38079833984375 142.486083984375 71.02682495117188 167.04800415039062Q70.6728515625 191.60992431640625 71.38079833984375 230.5655517578125L73.38079833984375 428H13.66357421875V449.66357421875L102.71722412109375 467.66357421875L69.54901123046875 445.66357421875L163.44171142578125 609.66357421875H209.51190185546875L205.51190185546875 445.66357421875V436V110.45098876953125Q205.51190185546875 74.99072265625 220.86587524414062 60.968536376953125Q236.2198486328125 46.94635009765625 258.68011474609375 46.94635009765625Q278.68011474609375 46.94635009765625 292.140380859375 54.03045654296875Q305.60064697265625 61.11456298828125 318.18475341796875 75.69866943359375L332.7244873046875 64.5748291015625Q321.30859375 39.20330810546875 303.9148864746094 21.45562744140625Q286.52117919921875 3.70794677734375 261.2956848144531 -5.561920166015625Q236.0701904296875 -14.831787109375 201.28277587890625 -14.831787109375Z" fill="#100F0F"/></g><g transform="translate(377.80,300.00) scale(0.22,-0.22)"><path d="M142.94635009765625 428V457.66357421875H309.9814453125V428ZM201.28277587890625 -14.831787109375Q140.12384033203125 -14.831787109375 105.7523193359375 15.977813720703125Q71.38079833984375 46.78741455078125 71.38079833984375 110.94635009765625Q71.38079833984375 142.486083984375 71.02682495117188 167.04800415039062Q70.6728515625 191.60992431640625 71.38079833984375 230.5655517578125L73.38079833984375 428H13.66357421875V449.66357421875L102.71722412109375 467.66357421875L69.54901123046875 445.66357421875L163.44171142578125 609.66357421875H209.51190185546875L205.51190185546875 445.66357421875V436V110.45098876953125Q205.51190185546875 74.99072265625 220.86587524414062 60.968536376953125Q236.2198486328125 46.94635009765625 258.68011474609375 46.94635009765625Q278.68011474609375 46.94635009765625 292.140380859375 54.03045654296875Q305.60064697265625 61.11456298828125 318.18475341796875 75.69866943359375L332.7244873046875 64.5748291015625Q321.30859375 39.20330810546875 303.9148864746094 21.45562744140625Q286.52117919921875 3.70794677734375 261.2956848144531 -5.561920166015625Q236.0701904296875 -14.831787109375 201.28277587890625 -14.831787109375Z" fill="#100F0F"/></g><g transform="translate(451.72,300.00) scale(0.22,-0.22)"><path d="M24.38079833984375 0V21.66357421875L109.05364990234375 36.495361328125H182.5655517578125L276.11456298828125 21.66357421875V0ZM74.55828857421875 0Q77.2662353515625 25.831787109375 78.12020874023438 62.061920166015625Q78.97418212890625 98.29205322265625 79.47418212890625 137.02218627929688Q79.97418212890625 175.7523193359375 79.97418212890625 209.168212890625V239.5933837890625Q79.97418212890625 271.13311767578125 79.82815551757812 295.6109313964844Q79.68212890625 320.0887451171875 79.18212890625 341.71258544921875Q78.68212890625 363.33642578125 77.68212890625 385.46026611328125L20.38079833984375 401.7523193359375V420L199.149658203125 472.495361328125L212.813232421875 461.66357421875V332.31787109375V328.60992431640625V209.168212890625Q212.813232421875 175.7523193359375 213.313232421875 137.02218627929688Q213.813232421875 98.29205322265625 214.813232421875 62.061920166015625Q215.813232421875 25.831787109375 218.2291259765625 0ZM207.93707275390625 274.94635009765625 193.10528564453125 322.45098876953125H207.10528564453125Q223.3973388671875 373.03509521484375 243.5655517578125 405.9731750488281Q263.7337646484375 438.9112548828125 289.2559509277344 455.70330810546875Q314.77813720703125 472.495361328125 345.0701904296875 472.495361328125Q375.5655517578125 472.495361328125 395.9592590332031 456.62384033203125Q416.35296630859375 440.7523193359375 422.35296630859375 406.71722412109375Q419.93707275390625 370.2662353515625 399.3354187011719 353.0185546875Q378.7337646484375 335.7708740234375 351.654296875 335.7708740234375Q329.99072265625 335.7708740234375 311.53509521484375 346.81060791015625Q293.0794677734375 357.850341796875 277.95562744140625 386.4251708984375L261.03509521484375 416.38079833984375L288 412.46954345703125Q266.03509521484375 396.345703125 241.59237670898438 357.9870910644531Q217.149658203125 319.62847900390625 207.93707275390625 274.94635009765625Z" fill="#100F0F"/></g><g transform="translate(546.10,300.00) scale(0.22,-0.22)"><path d="M250.53973388671875 -14.831787109375Q190 -14.831787109375 140.31423950195312 12.668212890625Q90.62847900390625 40.168212890625 61.504638671875 92.93807983398438Q32.38079833984375 145.70794677734375 32.38079833984375 221.66357421875Q32.38079833984375 304.45098876953125 63.21258544921875 359.95098876953125Q94.04437255859375 415.45098876953125 143.79205322265625 443.9731750488281Q193.53973388671875 472.495361328125 249.66357421875 472.495361328125Q306.99072265625 472.495361328125 348.3844299316406 449.16357421875Q389.77813720703125 425.831787109375 411.77813720703125 385.5Q433.77813720703125 345.168212890625 433.77813720703125 293.168212890625Q433.77813720703125 277.87615966796875 432.986083984375 268.9158935546875Q432.19403076171875 259.95562744140625 429.19403076171875 247.4158935546875H85.28277587890625V272.2476806640625H243.90399169921875Q285.35498046875 272.2476806640625 300.9566345214844 286.7254943847656Q316.55828857421875 301.20330810546875 316.55828857421875 341.77813720703125Q316.55828857421875 379.77813720703125 308.6599426269531 402.4685363769531Q300.7615966796875 425.158935546875 286.2569580078125 435.70330810546875Q271.7523193359375 446.2476806640625 252.495361328125 446.2476806640625Q230.4066162109375 446.2476806640625 211.94171142578125 427.7254943847656Q193.476806640625 409.20330810546875 182.61819458007812 365.6811218261719Q171.75958251953125 322.158935546875 171.75958251953125 246.45098876953125Q171.75958251953125 186.158935546875 189.6357421875 144.28277587890625Q207.51190185546875 102.4066162109375 238.82614135742188 80.67648315429688Q270.140380859375 58.94635009765625 309.8927001953125 58.94635009765625Q344.27349853515625 58.94635009765625 370.5480041503906 72.42880249023438Q396.822509765625 85.9112548828125 417.28277587890625 108L431.99072265625 95.7523193359375Q413.5748291015625 56.7523193359375 385.8049621582031 32.606292724609375Q358.03509521484375 8.46026611328125 324.0572814941406 -3.185760498046875Q290.0794677734375 -14.831787109375 250.53973388671875 -14.831787109375Z" fill="#100F0F"/></g><g transform="translate(649.50,300.00) scale(0.22,-0.22)"><path d="M247.4158935546875 -14.831787109375Q186.4158935546875 -14.831787109375 137.43807983398438 12.522186279296875Q88.46026611328125 39.87615966796875 59.982452392578125 92.93807983398438Q31.504638671875 146 31.504638671875 222.831787109375Q31.504638671875 304.2476806640625 62.650665283203125 359.8096008300781Q93.79669189453125 415.37152099609375 147.19039916992188 443.9334411621094Q200.5841064453125 472.495361328125 268.3271484375 472.495361328125Q316.822509765625 472.495361328125 350.86224365234375 455.66357421875Q384.9019775390625 438.831787109375 403.69403076171875 410.6460266113281Q422.486083984375 382.46026611328125 424.2384033203125 348.33642578125Q418.28277587890625 324.96490478515625 404.53509521484375 313.841064453125Q390.78741455078125 302.71722412109375 367.4158935546875 302.71722412109375Q343.62847900390625 302.71722412109375 324.4870910644531 320.4427185058594Q305.345703125 338.168212890625 302.46954345703125 384.36224365234375L295.504638671875 457.28277587890625L352.77813720703125 425.9112548828125Q334.654296875 437.53973388671875 317.1321105957031 441.8937072753906Q299.60992431640625 446.2476806640625 279.654296875 446.2476806640625Q252.18475341796875 446.2476806640625 227.11819458007812 425.8890686035156Q202.0516357421875 405.53045654296875 186.61355590820312 361.5082702636719Q171.17547607421875 317.486083984375 171.17547607421875 246.20330810546875Q171.17547607421875 188.2476806640625 186.967529296875 146.14138793945312Q202.75958251953125 104.03509521484375 232.86587524414062 81.49072265625Q262.97216796875 58.94635009765625 306.476806640625 58.94635009765625Q327.9814453125 58.94635009765625 346.31787109375 64.96853637695312Q364.654296875 70.99072265625 380.61456298828125 82.03509521484375Q396.5748291015625 93.0794677734375 410.45098876953125 108L425.158935546875 95.7523193359375Q406.7430419921875 57.04437255859375 380.11920166015625 32.7523193359375Q353.495361328125 8.46026611328125 320.37152099609375 -3.185760498046875Q287.2476806640625 -14.831787109375 247.4158935546875 -14.831787109375Z" fill="#100F0F"/></g><g transform="translate(748.94,300.00) scale(0.22,-0.22)"><path d="M130.4158935546875 -10.53973388671875Q99.63137086680237 -10.53973388671875 77.75840393926056 11.03973388671875Q55.88543701171875 32.61920166015625 55.88543701171875 63.92763828995204Q55.88543701171875 95.21037791034962 77.75840393926056 116.86577855478419Q99.63137086680237 138.52117919921875 130.4158935546875 138.52117919921875Q162.20041624257263 138.52117919921875 183.57338317011443 116.86577855478419Q204.94635009765625 95.21037791034962 204.94635009765625 63.92763828995204Q204.94635009765625 32.61920166015625 183.57338317011443 11.03973388671875Q162.20041624257263 -10.53973388671875 130.4158935546875 -10.53973388671875Z" fill="#6F6E69"/></g><g transform="translate(806.36,300.00) scale(0.22,-0.22)"><path d="M247.4158935546875 -14.831787109375Q186.4158935546875 -14.831787109375 137.43807983398438 12.522186279296875Q88.46026611328125 39.87615966796875 59.982452392578125 92.93807983398438Q31.504638671875 146 31.504638671875 222.831787109375Q31.504638671875 304.2476806640625 62.650665283203125 359.8096008300781Q93.79669189453125 415.37152099609375 147.19039916992188 443.9334411621094Q200.5841064453125 472.495361328125 268.3271484375 472.495361328125Q316.822509765625 472.495361328125 350.86224365234375 455.66357421875Q384.9019775390625 438.831787109375 403.69403076171875 410.6460266113281Q422.486083984375 382.46026611328125 424.2384033203125 348.33642578125Q418.28277587890625 324.96490478515625 404.53509521484375 313.841064453125Q390.78741455078125 302.71722412109375 367.4158935546875 302.71722412109375Q343.62847900390625 302.71722412109375 324.4870910644531 320.4427185058594Q305.345703125 338.168212890625 302.46954345703125 384.36224365234375L295.504638671875 457.28277587890625L352.77813720703125 425.9112548828125Q334.654296875 437.53973388671875 317.1321105957031 441.8937072753906Q299.60992431640625 446.2476806640625 279.654296875 446.2476806640625Q252.18475341796875 446.2476806640625 227.11819458007812 425.8890686035156Q202.0516357421875 405.53045654296875 186.61355590820312 361.5082702636719Q171.17547607421875 317.486083984375 171.17547607421875 246.20330810546875Q171.17547607421875 188.2476806640625 186.967529296875 146.14138793945312Q202.75958251953125 104.03509521484375 232.86587524414062 81.49072265625Q262.97216796875 58.94635009765625 306.476806640625 58.94635009765625Q327.9814453125 58.94635009765625 346.31787109375 64.96853637695312Q364.654296875 70.99072265625 380.61456298828125 82.03509521484375Q396.5748291015625 93.0794677734375 410.45098876953125 108L425.158935546875 95.7523193359375Q406.7430419921875 57.04437255859375 380.11920166015625 32.7523193359375Q353.495361328125 8.46026611328125 320.37152099609375 -3.185760498046875Q287.2476806640625 -14.831787109375 247.4158935546875 -14.831787109375Z" fill="#6F6E69"/></g><g transform="translate(905.80,300.00) scale(0.22,-0.22)"><path d="M147.504638671875 -14.831787109375Q94.96490478515625 -14.831787109375 61.6728515625 15.438079833984375Q28.38079833984375 45.70794677734375 28.38079833984375 100Q28.38079833984375 134.37152099609375 45.04437255859375 163.26522827148438Q61.70794677734375 192.158935546875 100.14138793945312 216.78277587890625Q138.5748291015625 241.4066162109375 203.822509765625 260.69866943359375Q221.654296875 266.4066162109375 246.25595092773438 273.11456298828125Q270.85760498046875 279.822509765625 298.35760498046875 286.9685363769531Q325.85760498046875 294.11456298828125 350.94635009765625 300.69866943359375V279.03509521484375Q312.68939208984375 267.5748291015625 281.4814453125 258.28277587890625Q250.27349853515625 248.99072265625 234.85760498046875 241.5748291015625Q209.84832763671875 229.94635009765625 191.76422119140625 214.84005737304688Q173.68011474609375 199.7337646484375 163.78640747070312 179.25595092773438Q153.8927001953125 158.77813720703125 153.8927001953125 130.45098876953125Q153.8927001953125 90.28277587890625 171.85296630859375 71.78277587890625Q189.813232421875 53.28277587890625 216.85760498046875 53.28277587890625Q232.486083984375 53.28277587890625 245.46853637695312 57.5748291015625Q258.45098876953125 61.86688232421875 273.37152099609375 72.47317504882812Q288.29205322265625 83.0794677734375 308.38079833984375 101.7523193359375L316.38079833984375 62.33642578125H286.38079833984375Q266.0887451171875 33.62847900390625 244.65066528320312 16.690399169921875Q223.21258544921875 -0.2476806640625 199.4205322265625 -7.53973388671875Q175.62847900390625 -14.831787109375 147.504638671875 -14.831787109375ZM379.61920166015625 -13.66357421875Q331.70794677734375 -13.66357421875 306.8983459472656 7.83642578125Q282.0887451171875 29.33642578125 277.54901123046875 64.38079833984375V67.79669189453125V316.495361328125Q277.54901123046875 365.495361328125 270.88079833984375 392.9334411621094Q264.21258544921875 420.37152099609375 248.10629272460938 432.0175476074219Q232 443.66357421875 202.831787109375 443.66357421875Q188.0794677734375 443.66357421875 173.61920166015625 439.87152099609375Q159.158935546875 436.0794677734375 146.94635009765625 430.495361328125L176.36224365234375 456.5748291015625L169.3973388671875 385.0701904296875Q167.52117919921875 338.168212890625 146.60992431640625 320.4427185058594Q125.69866943359375 302.71722412109375 101.61920166015625 302.71722412109375Q78.95562744140625 302.71722412109375 65.29205322265625 314.13311767578125Q51.62847900390625 325.54901123046875 45.38079833984375 348.9205322265625Q50.71722412109375 403.5841064453125 104.44271850585938 438.03973388671875Q158.168212890625 472.495361328125 245.53045654296875 472.495361328125Q303.5655517578125 472.495361328125 340.14501953125 453.87152099609375Q376.7244873046875 435.2476806640625 393.7023010253906 396.3539733886719Q410.68011474609375 357.46026611328125 410.68011474609375 296.0887451171875V72.38079833984375Q410.68011474609375 56.95562744140625 416.7023010253906 49.70330810546875Q422.7244873046875 42.45098876953125 432.476806640625 42.45098876953125Q442.64501953125 42.45098876953125 450.2291259765625 47.389068603515625Q457.813232421875 52.3271484375 467.9814453125 64.9112548828125L482.2291259765625 54.0794677734375Q470.10528564453125 23 443.9638977050781 4.668212890625Q417.822509765625 -13.66357421875 379.61920166015625 -13.66357421875Z" fill="#6F6E69"/></g><path d="M187.50 358.00 C303.00 347.00 347.00 347.00 462.50 358.00 C578.00 369.00 622.00 369.00 737.50 358.00 C853.00 347.00 897.00 347.00 1012.50 358.00" fill="none" stroke="url(#wave)" stroke-width="11" stroke-linecap="round"/><path d="M175.50 382.00 C294.36 370.00 339.64 370.00 458.50 382.00 C577.36 394.00 622.64 394.00 741.50 382.00 C860.36 370.00 905.64 370.00 1024.50 382.00" fill="none" stroke="url(#wave)" stroke-width="11" stroke-linecap="round"/><g transform="translate(192.62,450.00) scale(0.046,-0.046)"><path d="M331.9732451678535 -12Q249.6799593082401 -12 186.41998982706002 29.886673448626652Q123.16002034587996 71.7733468972533 87.43336724313326 148.66002034587996Q51.70671414038657 225.5466937945066 51.70671414038657 330.7733468972533Q51.70671414038657 436 87.43336724313326 511.58001017294Q123.16002034587996 587.16002034588 186.41998982706002 627.7400305188199Q249.6799593082401 668.3200406917599 331.9732451678535 668.3200406917599Q414.8798575788403 668.3200406917599 478.13982706002037 627.7400305188199Q541.3997965412004 587.16002034588 577.1264496439471 511.58001017294Q612.8531027466938 436 612.8531027466938 330.7733468972533Q612.8531027466938 225.5466937945066 577.1264496439471 148.66002034587996Q541.3997965412004 71.7733468972533 478.13982706002037 29.886673448626652Q414.8798575788403 -12 331.9732451678535 -12ZM331.9732451678535 61.54618514750763Q390.93336724313326 61.54618514750763 434.23346897253305 94.71958290946083Q477.53357070193283 127.89298067141404 501.8202950152594 188.5797558494405Q526.1070193285859 249.26653102746693 526.1070193285859 330.7733468972533Q526.1070193285859 412.28016276703966 501.8202950152594 471.35361139369274Q477.53357070193283 530.4270600203458 434.23346897253305 562.600457782299Q390.93336724313326 594.7738555442522 331.9732451678535 594.7738555442522Q273.6264496439471 594.7738555442522 230.01968463886064 562.600457782299Q186.41291963377415 530.4270600203458 162.1261953204476 471.35361139369274Q137.83947100712106 412.28016276703966 137.83947100712106 330.7733468972533Q137.83947100712106 249.26653102746693 162.1261953204476 188.5797558494405Q186.41291963377415 127.89298067141404 230.01968463886064 94.71958290946083Q273.6264496439471 61.54618514750763 331.9732451678535 61.54618514750763Z" fill="#6F6E69"/></g><g transform="translate(223.17,450.00) scale(0.046,-0.046)"><path d="M235.1731434384537 -9.226653102746694Q157.51993896236013 -9.226653102746694 126.85335707019328 36.01993896236012Q96.18677517802645 81.26653102746694 96.18677517802645 153.30640895218718V419.3336724313327H23.86673448626653V481.3599186164802L99.86673448626654 485.9732451678535L110 642.2932858596134H178.93285859613428V485.9732451678535H310.50630722278737V419.3336724313327H178.93285859613428V151.75971515768057Q178.93285859613428 107.59969481180062 195.54618514750763 82.81297049847406Q212.15951169888098 58.02624618514751 253.73296032553407 58.02624618514751Q267.1196337741607 58.02624618514751 280.892980671414 60.60625635808749Q294.6663275686673 63.18626653102747 308.98636826042724 70.34628687690743L326.50630722278737 12.160020345879959Q307.50630722278737 2.7733468972533064 283.8263479145473 -3.2266531027466936Q260.1463886063072 -9.226653102746694 235.1731434384537 -9.226653102746694Z" fill="#6F6E69"/></g><g transform="translate(238.72,450.00) scale(0.046,-0.046)"><path d="M235.1731434384537 -9.226653102746694Q157.51993896236013 -9.226653102746694 126.85335707019328 36.01993896236012Q96.18677517802645 81.26653102746694 96.18677517802645 153.30640895218718V419.3336724313327H23.86673448626653V481.3599186164802L99.86673448626654 485.9732451678535L110 642.2932858596134H178.93285859613428V485.9732451678535H310.50630722278737V419.3336724313327H178.93285859613428V151.75971515768057Q178.93285859613428 107.59969481180062 195.54618514750763 82.81297049847406Q212.15951169888098 58.02624618514751 253.73296032553407 58.02624618514751Q267.1196337741607 58.02624618514751 280.892980671414 60.60625635808749Q294.6663275686673 63.18626653102747 308.98636826042724 70.34628687690743L326.50630722278737 12.160020345879959Q307.50630722278737 2.7733468972533064 283.8263479145473 -3.2266531027466936Q260.1463886063072 -9.226653102746694 235.1731434384537 -9.226653102746694Z" fill="#6F6E69"/></g><g transform="translate(254.26,450.00) scale(0.046,-0.046)"><path d="M194.3200406917599 -12Q153.64008138351983 -12 121.2200915564598 4.259969481180061Q88.8001017293998 20.519938962360122 70.10676500508647 51.473245167853506Q51.41342828077315 82.4265513733469 51.41342828077315 126.1998982706002Q51.41342828077315 208.03987792472026 123.4268056968464 250.1532044760936Q195.44018311291964 292.26653102746695 350.6935910478128 309.03987792472026Q350.46693794506615 339.4533062054934 341.96693794506615 367.0267548321465Q333.46693794506615 394.60020345879957 311.45356052899285 411.7402848423194Q289.4401831129196 428.8803662258393 249.86673448626652 428.8803662258393Q208.06663275686674 428.8803662258393 171.0532553407935 413.36698880976604Q134.03987792472026 397.8536113936928 104.90661241098678 379.01363173957276L72.96012207527976 435.3599186164802Q95.32004069175991 450.4265513733469 125.0 464.9265513733469Q154.6799593082401 479.4265513733469 189.90661241098678 488.6998982706002Q225.13326551373348 497.9732451678535 264.1332655137335 497.9732451678535Q323.1998982706002 497.9732451678535 360.41317395727367 473.2799084435402Q397.6264496439471 448.58657171922687 415.22639877924723 403.5999491353001Q432.8263479145473 358.61332655137335 432.8263479145473 297.73346897253305V0H364.50681586978635L358.05350966429296 57.86673448626653H354.82685656154626Q319.6668362156663 29.093387589013226 279.7667853509664 8.546693794506613Q239.86673448626652 -12 194.3200406917599 -12ZM217.1731434384537 56.4795523906409Q252.58657171922687 56.4795523906409 284.08001017294 72.26627670396745Q315.5734486266531 88.053001017294 350.6935910478128 118.85310274669379V249.9202441505595Q269 240.3735503560529 221.29984740590032 224.47349949135298Q173.59969481180062 208.5734486266531 153.03962360122074 185.6267039674466Q132.4795523906409 162.6799593082401 132.4795523906409 131.49318413021362Q132.4795523906409 91.21302136317397 157.31297049847404 73.84628687690743Q182.14638860630723 56.4795523906409 217.1731434384537 56.4795523906409Z" fill="#6F6E69"/></g><g transform="translate(277.45,450.00) scale(0.046,-0.046)"><path d="M159.41342828077313 0 24 485.9732451678535H109.51943031536115L180.66632756866736 205.06612410986776Q189.053001017294 172.06612410986776 196.21302136317397 139.11281790437437Q203.37304170905392 106.15951169888098 209.14638860630723 66.7995930824008H213.14638860630723Q220.91973550356053 106.15951169888098 228.38641912512716 139.11281790437437Q235.8531027466938 172.06612410986776 243.6264496439471 205.06612410986776L316 485.9732451678535H405.83947100712106L479.43967446592063 205.06612410986776Q487.8263479145473 172.06612410986776 495.5996948118006 139.11281790437437Q503.3730417090539 106.15951169888098 511.1463886063072 66.7995930824008H515.1463886063073Q522.9197355035606 106.15951169888098 529.7730925737538 139.11281790437437Q536.6264496439471 172.06612410986776 544.3997965412004 205.06612410986776L614.7733468972533 485.9732451678535H694.6128179043744L563.8127161749745 0H457.41342828077313L391.94649033570704 260.48056968463885Q383.7864699898271 294.25391658189216 376.5131230925738 327.75391658189216Q369.2397761953205 361.25391658189216 361.3064089521872 403.840488301119H357.3064089521872Q350.1463886063072 361.25391658189216 342.7930315361139 327.3672431332655Q335.43967446592063 293.48056968463885 325.892980671414 259.70722278738555L261.19938962360123 0Z" fill="#6F6E69"/></g><g transform="translate(310.52,450.00) scale(0.046,-0.046)"><path d="M194.3200406917599 -12Q153.64008138351983 -12 121.2200915564598 4.259969481180061Q88.8001017293998 20.519938962360122 70.10676500508647 51.473245167853506Q51.41342828077315 82.4265513733469 51.41342828077315 126.1998982706002Q51.41342828077315 208.03987792472026 123.4268056968464 250.1532044760936Q195.44018311291964 292.26653102746695 350.6935910478128 309.03987792472026Q350.46693794506615 339.4533062054934 341.96693794506615 367.0267548321465Q333.46693794506615 394.60020345879957 311.45356052899285 411.7402848423194Q289.4401831129196 428.8803662258393 249.86673448626652 428.8803662258393Q208.06663275686674 428.8803662258393 171.0532553407935 413.36698880976604Q134.03987792472026 397.8536113936928 104.90661241098678 379.01363173957276L72.96012207527976 435.3599186164802Q95.32004069175991 450.4265513733469 125.0 464.9265513733469Q154.6799593082401 479.4265513733469 189.90661241098678 488.6998982706002Q225.13326551373348 497.9732451678535 264.1332655137335 497.9732451678535Q323.1998982706002 497.9732451678535 360.41317395727367 473.2799084435402Q397.6264496439471 448.58657171922687 415.22639877924723 403.5999491353001Q432.8263479145473 358.61332655137335 432.8263479145473 297.73346897253305V0H364.50681586978635L358.05350966429296 57.86673448626653H354.82685656154626Q319.6668362156663 29.093387589013226 279.7667853509664 8.546693794506613Q239.86673448626652 -12 194.3200406917599 -12ZM217.1731434384537 56.4795523906409Q252.58657171922687 56.4795523906409 284.08001017294 72.26627670396745Q315.5734486266531 88.053001017294 350.6935910478128 118.85310274669379V249.9202441505595Q269 240.3735503560529 221.29984740590032 224.47349949135298Q173.59969481180062 208.5734486266531 153.03962360122074 185.6267039674466Q132.4795523906409 162.6799593082401 132.4795523906409 131.49318413021362Q132.4795523906409 91.21302136317397 157.31297049847404 73.84628687690743Q182.14638860630723 56.4795523906409 217.1731434384537 56.4795523906409Z" fill="#6F6E69"/></g><g transform="translate(333.71,450.00) scale(0.046,-0.046)"><path d="" fill="#6F6E69"/></g><g transform="translate(342.91,450.00) scale(0.046,-0.046)"><path d="M82.0167236328125 0V486.0955810546875H149.966552734375L156.910400390625 397.5675048828125H159.6463623046875Q184.48626708984375 444.14337158203125 220.14218139648438 471.1194763183594Q255.798095703125 498.0955810546875 297.854248046875 498.0955810546875Q313.90203857421875 498.0955810546875 326.1899719238281 495.9115905761719Q338.4779052734375 493.72760009765625 349.741943359375 488.0955810546875L331.6463623046875 417.9378662109375Q321.1744384765625 420.9378662109375 311.7544860839844 422.4378662109375Q302.33453369140625 423.9378662109375 287.2305908203125 423.9378662109375Q256.4384765625 423.9378662109375 222.83035278320312 399.11767578125Q189.22222900390625 374.2974853515625 164.27001953125 312.1290283203125V0Z" fill="#6F6E69"/></g><g transform="translate(358.87,450.00) scale(0.046,-0.046)"><path d="M279.3599186164802 -12Q213.83997965412004 -12 160.66002034587996 18.306663275686674Q107.48006103763987 48.61332655137335 76.4467446592065 105.53331637843337Q45.41342828077315 162.4533062054934 45.41342828077315 242.90661241098678Q45.41342828077315 322.1332655137335 77.06007121057985 379.2465920651068Q108.70671414038657 436.3599186164802 158.7733468972533 467.16658189216685Q208.83997965412004 497.9732451678535 264.9066124109868 497.9732451678535Q327.26653102746695 497.9732451678535 370.526500508647 469.71327568667346Q413.7864699898271 441.4533062054934 436.09313326551376 390.3066632756867Q458.39979654120043 339.16002034587996 458.39979654120043 270Q458.39979654120043 257.48006103763987 457.4798067141404 245.18677517802644Q456.5598168870804 232.89348931841303 453.94649033570704 220.8268565615463H104.34628687690743V285.6264496439471H384.24028484231945Q384.24028484231945 356.41342828077313 353.6668362156663 393.8735503560529Q323.0933875890132 431.3336724313327 266.1332655137335 431.3336724313327Q232.71983723296032 431.3336724313327 200.9997456765005 412.6602746693794Q169.2796541200407 393.9868769074262 148.49292980671413 352.7667853509664Q127.70620549338759 311.5466937945066 127.70620549338759 243.6799593082401Q127.70620549338759 181.81322482197356 149.44623601220752 139.89979654120043Q171.18626653102746 97.98636826042727 208.05300101729398 76.61963377416073Q244.91973550356053 55.2528992878942 288.71983723296034 55.2528992878942Q324.1998982706002 55.2528992878942 354.43992878942015 65.0262461851475Q384.6799593082401 74.7995930824008 409.6799593082401 91.57293997965412L439.6264496439471 37.67995930824008Q408.3331637843337 16 368.6998982706002 2.0Q329.06663275686674 -12 279.3599186164802 -12Z" fill="#6F6E69"/></g><g transform="translate(381.68,450.00) scale(0.046,-0.046)"><path d="M275.3599186164802 -12Q210.06663275686674 -12 158.19333672431333 18.113326551373348Q106.32004069175991 48.226653102746695 76.1733977619532 105.14664292980672Q46.02675483214649 162.06663275686674 46.02675483214649 242.29328585961343Q46.02675483214649 323.51993896236013 78.48006103763987 380.6332655137335Q110.93336724313326 437.7465920651068 164.33997965412004 467.8599186164802Q217.74659206510682 497.9732451678535 279.6532044760936 497.9732451678535Q327.81322482197356 497.9732451678535 362.34654120040693 481.89323499491354Q396.8798575788403 465.81322482197356 422.106510681587 441.03987792472026L381.41342828077313 389.9202441505595Q363.0933875890132 408.01363173957276 338.7266531027467 418.7536622583927Q314.3599186164802 429.49369277721263 283.3331637843337 429.49369277721263Q239.69308240081384 429.49369277721263 205.43967446592063 405.90030518819935Q171.18626653102746 382.30691759918614 150.9795523906409 340.393489318413Q130.77283825025432 298.48006103763987 130.77283825025432 242.29328585961343Q130.77283825025432 186.71983723296032 149.8995422177009 144.9997456765005Q169.0262461851475 103.27965412004069 202.972990844354 79.8796032553408Q236.91973550356053 56.4795523906409 282.106510681587 56.4795523906409Q315.7465920651068 56.4795523906409 344.7266531027467 69.21958290946084Q373.70671414038657 81.95961342828078 395.2534079348932 102.053001017294L431.03987792472026 51.54669379450661Q400.4265513733469 22.773346897253305 361.08657171922687 5.386673448626652Q321.7465920651068 -12 275.3599186164802 -12Z" fill="#6F6E69"/></g><g transform="translate(402.66,450.00) scale(0.046,-0.046)"><path d="M82.0167236328125 0V486.0955810546875H149.966552734375L156.910400390625 397.5675048828125H159.6463623046875Q184.48626708984375 444.14337158203125 220.14218139648438 471.1194763183594Q255.798095703125 498.0955810546875 297.854248046875 498.0955810546875Q313.90203857421875 498.0955810546875 326.1899719238281 495.9115905761719Q338.4779052734375 493.72760009765625 349.741943359375 488.0955810546875L331.6463623046875 417.9378662109375Q321.1744384765625 420.9378662109375 311.7544860839844 422.4378662109375Q302.33453369140625 423.9378662109375 287.2305908203125 423.9378662109375Q256.4384765625 423.9378662109375 222.83035278320312 399.11767578125Q189.22222900390625 374.2974853515625 164.27001953125 312.1290283203125V0Z" fill="#6F6E69"/></g><g transform="translate(418.62,450.00) scale(0.046,-0.046)"><path d="M279.3599186164802 -12Q213.83997965412004 -12 160.66002034587996 18.306663275686674Q107.48006103763987 48.61332655137335 76.4467446592065 105.53331637843337Q45.41342828077315 162.4533062054934 45.41342828077315 242.90661241098678Q45.41342828077315 322.1332655137335 77.06007121057985 379.2465920651068Q108.70671414038657 436.3599186164802 158.7733468972533 467.16658189216685Q208.83997965412004 497.9732451678535 264.9066124109868 497.9732451678535Q327.26653102746695 497.9732451678535 370.526500508647 469.71327568667346Q413.7864699898271 441.4533062054934 436.09313326551376 390.3066632756867Q458.39979654120043 339.16002034587996 458.39979654120043 270Q458.39979654120043 257.48006103763987 457.4798067141404 245.18677517802644Q456.5598168870804 232.89348931841303 453.94649033570704 220.8268565615463H104.34628687690743V285.6264496439471H384.24028484231945Q384.24028484231945 356.41342828077313 353.6668362156663 393.8735503560529Q323.0933875890132 431.3336724313327 266.1332655137335 431.3336724313327Q232.71983723296032 431.3336724313327 200.9997456765005 412.6602746693794Q169.2796541200407 393.9868769074262 148.49292980671413 352.7667853509664Q127.70620549338759 311.5466937945066 127.70620549338759 243.6799593082401Q127.70620549338759 181.81322482197356 149.44623601220752 139.89979654120043Q171.18626653102746 97.98636826042727 208.05300101729398 76.61963377416073Q244.91973550356053 55.2528992878942 288.71983723296034 55.2528992878942Q324.1998982706002 55.2528992878942 354.43992878942015 65.0262461851475Q384.6799593082401 74.7995930824008 409.6799593082401 91.57293997965412L439.6264496439471 37.67995930824008Q408.3331637843337 16 368.6998982706002 2.0Q329.06663275686674 -12 279.3599186164802 -12Z" fill="#6F6E69"/></g><g transform="translate(441.44,450.00) scale(0.046,-0.046)"><path d="M194.3200406917599 -12Q153.64008138351983 -12 121.2200915564598 4.259969481180061Q88.8001017293998 20.519938962360122 70.10676500508647 51.473245167853506Q51.41342828077315 82.4265513733469 51.41342828077315 126.1998982706002Q51.41342828077315 208.03987792472026 123.4268056968464 250.1532044760936Q195.44018311291964 292.26653102746695 350.6935910478128 309.03987792472026Q350.46693794506615 339.4533062054934 341.96693794506615 367.0267548321465Q333.46693794506615 394.60020345879957 311.45356052899285 411.7402848423194Q289.4401831129196 428.8803662258393 249.86673448626652 428.8803662258393Q208.06663275686674 428.8803662258393 171.0532553407935 413.36698880976604Q134.03987792472026 397.8536113936928 104.90661241098678 379.01363173957276L72.96012207527976 435.3599186164802Q95.32004069175991 450.4265513733469 125.0 464.9265513733469Q154.6799593082401 479.4265513733469 189.90661241098678 488.6998982706002Q225.13326551373348 497.9732451678535 264.1332655137335 497.9732451678535Q323.1998982706002 497.9732451678535 360.41317395727367 473.2799084435402Q397.6264496439471 448.58657171922687 415.22639877924723 403.5999491353001Q432.8263479145473 358.61332655137335 432.8263479145473 297.73346897253305V0H364.50681586978635L358.05350966429296 57.86673448626653H354.82685656154626Q319.6668362156663 29.093387589013226 279.7667853509664 8.546693794506613Q239.86673448626652 -12 194.3200406917599 -12ZM217.1731434384537 56.4795523906409Q252.58657171922687 56.4795523906409 284.08001017294 72.26627670396745Q315.5734486266531 88.053001017294 350.6935910478128 118.85310274669379V249.9202441505595Q269 240.3735503560529 221.29984740590032 224.47349949135298Q173.59969481180062 208.5734486266531 153.03962360122074 185.6267039674466Q132.4795523906409 162.6799593082401 132.4795523906409 131.49318413021362Q132.4795523906409 91.21302136317397 157.31297049847404 73.84628687690743Q182.14638860630723 56.4795523906409 217.1731434384537 56.4795523906409Z" fill="#6F6E69"/></g><g transform="translate(464.62,450.00) scale(0.046,-0.046)"><path d="M235.1731434384537 -9.226653102746694Q157.51993896236013 -9.226653102746694 126.85335707019328 36.01993896236012Q96.18677517802645 81.26653102746694 96.18677517802645 153.30640895218718V419.3336724313327H23.86673448626653V481.3599186164802L99.86673448626654 485.9732451678535L110 642.2932858596134H178.93285859613428V485.9732451678535H310.50630722278737V419.3336724313327H178.93285859613428V151.75971515768057Q178.93285859613428 107.59969481180062 195.54618514750763 82.81297049847406Q212.15951169888098 58.02624618514751 253.73296032553407 58.02624618514751Q267.1196337741607 58.02624618514751 280.892980671414 60.60625635808749Q294.6663275686673 63.18626653102747 308.98636826042724 70.34628687690743L326.50630722278737 12.160020345879959Q307.50630722278737 2.7733468972533064 283.8263479145473 -3.2266531027466936Q260.1463886063072 -9.226653102746694 235.1731434384537 -9.226653102746694Z" fill="#6F6E69"/></g><g transform="translate(480.17,450.00) scale(0.046,-0.046)"><path d="M81.89348931841302 0V485.9732451678535H164.0262461851475V0ZM122.5113525390625 586.0167236328125Q98.83990478515625 586.0167236328125 83.26821899414062 600.9844665527344Q67.696533203125 615.9522094726562 67.696533203125 640.415771484375Q67.696533203125 664.247314453125 83.26821899414062 678.8990478515625Q98.83990478515625 693.55078125 122.5113525390625 693.55078125Q146.8148193359375 693.55078125 162.07049560546875 678.8990478515625Q177.326171875 664.247314453125 177.326171875 640.415771484375Q177.326171875 615.9522094726562 162.07049560546875 600.9844665527344Q146.8148193359375 586.0167236328125 122.5113525390625 586.0167236328125Z" fill="#6F6E69"/></g><g transform="translate(491.49,450.00) scale(0.046,-0.046)"><path d="M271.1517333984375 -12Q211.57586669921875 -12 160.13201904296875 18.051971435546875Q108.68817138671875 48.10394287109375 77.29629516601562 105.02389526367188Q45.9044189453125 161.94384765625 45.9044189453125 242.415771484375Q45.9044189453125 323.51971435546875 77.29629516601562 380.75567626953125Q108.68817138671875 437.99163818359375 160.13201904296875 468.0436096191406Q211.57586669921875 498.0955810546875 271.1517333984375 498.0955810546875Q330.72760009765625 498.0955810546875 381.8554382324219 468.0436096191406Q432.9832763671875 437.99163818359375 464.691162109375 380.75567626953125Q496.3990478515625 323.51971435546875 496.3990478515625 242.415771484375Q496.3990478515625 161.94384765625 464.691162109375 105.02389526367188Q432.9832763671875 48.10394287109375 381.8554382324219 18.051971435546875Q330.72760009765625 -12 271.1517333984375 -12ZM271.1517333984375 56.4779052734375Q312.95220947265625 56.4779052734375 344.752685546875 79.69415283203125Q376.55316162109375 102.910400390625 393.9814758300781 144.8148193359375Q411.4097900390625 186.71923828125 411.4097900390625 242.415771484375Q411.4097900390625 298.1123046875 393.9814758300781 340.3327331542969Q376.55316162109375 382.55316162109375 344.752685546875 406.0854187011719Q312.95220947265625 429.61767578125 271.1517333984375 429.61767578125Q229.35125732421875 429.61767578125 197.86679077148438 406.0854187011719Q166.38232421875 382.55316162109375 148.63800048828125 340.3327331542969Q130.8936767578125 298.1123046875 130.8936767578125 242.415771484375Q130.8936767578125 186.71923828125 148.63800048828125 144.8148193359375Q166.38232421875 102.910400390625 197.86679077148438 79.69415283203125Q229.35125732421875 56.4779052734375 271.1517333984375 56.4779052734375Z" fill="#6F6E69"/></g><g transform="translate(516.42,450.00) scale(0.046,-0.046)"><path d="M82.0167236328125 0V486.0955810546875H149.966552734375L156.910400390625 415.9832763671875H159.6463623046875Q194.7025146484375 450.67144775390625 233.83453369140625 474.3835144042969Q272.966552734375 498.0955810546875 322.7025146484375 498.0955810546875Q400.01434326171875 498.0955810546875 435.5663146972656 449.54779052734375Q471.1182861328125 401 471.1182861328125 308V0H388.864990234375V297.3763427734375Q388.864990234375 365.6009521484375 367.38470458984375 396.13739013671875Q345.9044189453125 426.673828125 297.1517333984375 426.673828125Q259.87933349609375 426.673828125 230.60693359375 407.8255615234375Q201.33453369140625 388.977294921875 164.27001953125 352.0167236328125V0Z" fill="#6F6E69"/></g><g transform="translate(541.58,450.00) scale(0.046,-0.046)"><path d="" fill="#6F6E69"/></g><g transform="translate(550.78,450.00) scale(0.046,-0.046)"><path d="M209.471923828125 -12Q155.78375244140625 -12 108.60394287109375 6.551971435546875Q61.42413330078125 25.10394287109375 28.1123046875 57.6798095703125L65.9832763671875 105.6463623046875Q97.82318115234375 79.910400390625 132.40322875976562 65.98626708984375Q166.9832763671875 52.0621337890625 212.2078857421875 52.0621337890625Q260.06451416015625 52.0621337890625 283.8888854980469 74.41458129882812Q307.7132568359375 96.76702880859375 307.7132568359375 127.5675048828125Q307.7132568359375 152.57586669921875 291.6051330566406 169.16009521484375Q275.49700927734375 185.74432373046875 250.5728759765625 197.35244750976562Q225.64874267578125 208.9605712890625 198.0167236328125 218.9605712890625Q161.752685546875 231.9605712890625 128.9605712890625 249.61648559570312Q96.16845703125 267.27239990234375 75.50836181640625 293.74432373046875Q54.8482666015625 320.21624755859375 54.8482666015625 360.1123046875Q54.8482666015625 418.94384765625 99.41995239257812 458.51971435546875Q143.99163818359375 498.0955810546875 222.5113525390625 498.0955810546875Q268.135009765625 498.0955810546875 306.91876220703125 482.75567626953125Q345.7025146484375 467.415771484375 373.6463623046875 443.471923828125L335.775390625 395.50537109375Q310.303466796875 413.60931396484375 283.303466796875 423.8213806152344Q256.303466796875 434.033447265625 223.4552001953125 434.033447265625Q177.4384765625 434.033447265625 155.69415283203125 412.8130187988281Q133.9498291015625 391.59259033203125 133.9498291015625 364.3201904296875Q133.9498291015625 341.94384765625 147.18997192382812 327.3076477050781Q160.43011474609375 312.67144775390625 183.72222900390625 302.0113525390625Q207.01434326171875 291.35125732421875 237.1182861328125 280.71923828125Q275.1182861328125 266.82318115234375 309.54241943359375 249.4832763671875Q343.966552734375 232.14337158203125 365.39068603515625 204.5394287109375Q386.8148193359375 176.93548583984375 386.8148193359375 132.5113525390625Q386.8148193359375 93.0955810546875 366.4229431152344 60.335723876953125Q346.03106689453125 27.57586669921875 306.4313049316406 7.787933349609375Q266.83154296875 -12 209.471923828125 -12Z" fill="#6F6E69"/></g><g transform="translate(570.05,450.00) scale(0.046,-0.046)"><path d="M275.3599186164802 -12Q210.06663275686674 -12 158.19333672431333 18.113326551373348Q106.32004069175991 48.226653102746695 76.1733977619532 105.14664292980672Q46.02675483214649 162.06663275686674 46.02675483214649 242.29328585961343Q46.02675483214649 323.51993896236013 78.48006103763987 380.6332655137335Q110.93336724313326 437.7465920651068 164.33997965412004 467.8599186164802Q217.74659206510682 497.9732451678535 279.6532044760936 497.9732451678535Q327.81322482197356 497.9732451678535 362.34654120040693 481.89323499491354Q396.8798575788403 465.81322482197356 422.106510681587 441.03987792472026L381.41342828077313 389.9202441505595Q363.0933875890132 408.01363173957276 338.7266531027467 418.7536622583927Q314.3599186164802 429.49369277721263 283.3331637843337 429.49369277721263Q239.69308240081384 429.49369277721263 205.43967446592063 405.90030518819935Q171.18626653102746 382.30691759918614 150.9795523906409 340.393489318413Q130.77283825025432 298.48006103763987 130.77283825025432 242.29328585961343Q130.77283825025432 186.71983723296032 149.8995422177009 144.9997456765005Q169.0262461851475 103.27965412004069 202.972990844354 79.8796032553408Q236.91973550356053 56.4795523906409 282.106510681587 56.4795523906409Q315.7465920651068 56.4795523906409 344.7266531027467 69.21958290946084Q373.70671414038657 81.95961342828078 395.2534079348932 102.053001017294L431.03987792472026 51.54669379450661Q400.4265513733469 22.773346897253305 361.08657171922687 5.386673448626652Q321.7465920651068 -12 275.3599186164802 -12Z" fill="#6F6E69"/></g><g transform="translate(591.03,450.00) scale(0.046,-0.046)"><path d="M82.0167236328125 0V712.4324951171875H164.27001953125V517.5675048828125L161.326171875 417.6630859375Q195.54241943359375 450.775390625 234.25448608398438 474.43548583984375Q272.966552734375 498.0955810546875 322.7025146484375 498.0955810546875Q400.01434326171875 498.0955810546875 435.5663146972656 449.54779052734375Q471.1182861328125 401 471.1182861328125 308V0H388.864990234375V297.3763427734375Q388.864990234375 365.6009521484375 367.38470458984375 396.13739013671875Q345.9044189453125 426.673828125 297.1517333984375 426.673828125Q259.87933349609375 426.673828125 230.60693359375 407.8255615234375Q201.33453369140625 388.977294921875 164.27001953125 352.0167236328125V0Z" fill="#6F6E69"/></g><g transform="translate(616.05,450.00) scale(0.046,-0.046)"><path d="M279.3599186164802 -12Q213.83997965412004 -12 160.66002034587996 18.306663275686674Q107.48006103763987 48.61332655137335 76.4467446592065 105.53331637843337Q45.41342828077315 162.4533062054934 45.41342828077315 242.90661241098678Q45.41342828077315 322.1332655137335 77.06007121057985 379.2465920651068Q108.70671414038657 436.3599186164802 158.7733468972533 467.16658189216685Q208.83997965412004 497.9732451678535 264.9066124109868 497.9732451678535Q327.26653102746695 497.9732451678535 370.526500508647 469.71327568667346Q413.7864699898271 441.4533062054934 436.09313326551376 390.3066632756867Q458.39979654120043 339.16002034587996 458.39979654120043 270Q458.39979654120043 257.48006103763987 457.4798067141404 245.18677517802644Q456.5598168870804 232.89348931841303 453.94649033570704 220.8268565615463H104.34628687690743V285.6264496439471H384.24028484231945Q384.24028484231945 356.41342828077313 353.6668362156663 393.8735503560529Q323.0933875890132 431.3336724313327 266.1332655137335 431.3336724313327Q232.71983723296032 431.3336724313327 200.9997456765005 412.6602746693794Q169.2796541200407 393.9868769074262 148.49292980671413 352.7667853509664Q127.70620549338759 311.5466937945066 127.70620549338759 243.6799593082401Q127.70620549338759 181.81322482197356 149.44623601220752 139.89979654120043Q171.18626653102746 97.98636826042727 208.05300101729398 76.61963377416073Q244.91973550356053 55.2528992878942 288.71983723296034 55.2528992878942Q324.1998982706002 55.2528992878942 354.43992878942015 65.0262461851475Q384.6799593082401 74.7995930824008 409.6799593082401 91.57293997965412L439.6264496439471 37.67995930824008Q408.3331637843337 16 368.6998982706002 2.0Q329.06663275686674 -12 279.3599186164802 -12Z" fill="#6F6E69"/></g><g transform="translate(638.87,450.00) scale(0.046,-0.046)"><path d="M247.584228515625 -12Q156.48028564453125 -12 101.92831420898438 54.7078857421875Q47.3763427734375 121.415771484375 47.3763427734375 242.415771484375Q47.3763427734375 321.25567626953125 76.8763427734375 378.49163818359375Q106.3763427734375 435.72760009765625 154.32437133789062 466.9115905761719Q202.27239990234375 498.0955810546875 257.696533203125 498.0955810546875Q300.59259033203125 498.0955810546875 331.5167236328125 483.33154296875Q362.44085693359375 468.5675048828125 393.921142578125 441.775390625L390.44921875 525.1517333984375V712.4324951171875H472.7025146484375V0H404.752685546875L397.808837890625 57.3763427734375H395.0728759765625Q366.91278076171875 29.21624755859375 329.12066650390625 8.608123779296875Q291.32855224609375 -12 247.584228515625 -12ZM265.775390625 57.2138671875Q299.6798095703125 57.2138671875 330.0322570800781 73.87814331054688Q360.38470458984375 90.54241943359375 390.44921875 123.55078125V378.3369140625Q359.64874267578125 406.2413330078125 330.9044189453125 417.5615234375Q302.16009521484375 428.8817138671875 271.8876953125 428.8817138671875Q233.03106689453125 428.8817138671875 201.54660034179688 405.6893615722656Q170.0621337890625 382.49700927734375 151.2138671875 340.5125427246094Q132.3656005859375 298.528076171875 132.3656005859375 243.1517333984375Q132.3656005859375 155.9271240234375 167.21804809570312 106.57049560546875Q202.07049560546875 57.2138671875 265.775390625 57.2138671875Z" fill="#6F6E69"/></g><g transform="translate(664.40,450.00) scale(0.046,-0.046)"><path d="M224.02675483214648 -12Q147.3467955239064 -12 111.54013224821972 36.48662258392675Q75.73346897253306 84.9732451678535 75.73346897253306 177.97324516785352V485.9732451678535H157.86622583926754V188.71983723296032Q157.86622583926754 120.75971515768057 179.53962360122074 90.1529501525941Q201.21302136317397 59.54618514750763 249.33316378433366 59.54618514750763Q286.3599186164802 59.54618514750763 315.6933367243133 79.0262461851475Q345.0267548321465 98.50630722278738 379.60020345879957 141.46642929806714V485.9732451678535H461.73296032553407V0H394.0267548321465L386.96012207527974 75.86673448626654H384.3467955239064Q350.8001017293998 36.32004069175992 312.41342828077313 12.16002034587996Q274.0267548321465 -12 224.02675483214648 -12Z" fill="#6F6E69"/></g><g transform="translate(689.42,450.00) scale(0.046,-0.046)"><path d="M169.14638860630723 -9.226653102746694Q138.19989827060022 -9.226653102746694 118.91998982706002 3.4066124109867753Q99.64008138351984 16.039877924720244 90.76678535096643 40.46642929806714Q81.89348931841302 64.89298067141404 81.89348931841302 100.15951169888098V712.1867751780264H164.0262461851475V94.15951169888098Q164.0262461851475 74.47955239064089 171.2528992878942 66.86622583926754Q178.4795523906409 59.2528992878942 188.4795523906409 59.2528992878942Q192.09287894201424 59.2528992878942 195.59287894201424 59.7528992878942Q199.09287894201424 60.2528992878942 205.09287894201424 61.2528992878942L216.61281790437437 -0.7733468972533062Q208.15951169888098 -4.386673448626653 196.33290946083417 -6.806663275686674Q184.50630722278737 -9.226653102746694 169.14638860630723 -9.226653102746694Z" fill="#6F6E69"/></g><g transform="translate(701.15,450.00) scale(0.046,-0.046)"><path d="M279.3599186164802 -12Q213.83997965412004 -12 160.66002034587996 18.306663275686674Q107.48006103763987 48.61332655137335 76.4467446592065 105.53331637843337Q45.41342828077315 162.4533062054934 45.41342828077315 242.90661241098678Q45.41342828077315 322.1332655137335 77.06007121057985 379.2465920651068Q108.70671414038657 436.3599186164802 158.7733468972533 467.16658189216685Q208.83997965412004 497.9732451678535 264.9066124109868 497.9732451678535Q327.26653102746695 497.9732451678535 370.526500508647 469.71327568667346Q413.7864699898271 441.4533062054934 436.09313326551376 390.3066632756867Q458.39979654120043 339.16002034587996 458.39979654120043 270Q458.39979654120043 257.48006103763987 457.4798067141404 245.18677517802644Q456.5598168870804 232.89348931841303 453.94649033570704 220.8268565615463H104.34628687690743V285.6264496439471H384.24028484231945Q384.24028484231945 356.41342828077313 353.6668362156663 393.8735503560529Q323.0933875890132 431.3336724313327 266.1332655137335 431.3336724313327Q232.71983723296032 431.3336724313327 200.9997456765005 412.6602746693794Q169.2796541200407 393.9868769074262 148.49292980671413 352.7667853509664Q127.70620549338759 311.5466937945066 127.70620549338759 243.6799593082401Q127.70620549338759 181.81322482197356 149.44623601220752 139.89979654120043Q171.18626653102746 97.98636826042727 208.05300101729398 76.61963377416073Q244.91973550356053 55.2528992878942 288.71983723296034 55.2528992878942Q324.1998982706002 55.2528992878942 354.43992878942015 65.0262461851475Q384.6799593082401 74.7995930824008 409.6799593082401 91.57293997965412L439.6264496439471 37.67995930824008Q408.3331637843337 16 368.6998982706002 2.0Q329.06663275686674 -12 279.3599186164802 -12Z" fill="#6F6E69"/></g><g transform="translate(723.97,450.00) scale(0.046,-0.046)"><path d="M209.471923828125 -12Q155.78375244140625 -12 108.60394287109375 6.551971435546875Q61.42413330078125 25.10394287109375 28.1123046875 57.6798095703125L65.9832763671875 105.6463623046875Q97.82318115234375 79.910400390625 132.40322875976562 65.98626708984375Q166.9832763671875 52.0621337890625 212.2078857421875 52.0621337890625Q260.06451416015625 52.0621337890625 283.8888854980469 74.41458129882812Q307.7132568359375 96.76702880859375 307.7132568359375 127.5675048828125Q307.7132568359375 152.57586669921875 291.6051330566406 169.16009521484375Q275.49700927734375 185.74432373046875 250.5728759765625 197.35244750976562Q225.64874267578125 208.9605712890625 198.0167236328125 218.9605712890625Q161.752685546875 231.9605712890625 128.9605712890625 249.61648559570312Q96.16845703125 267.27239990234375 75.50836181640625 293.74432373046875Q54.8482666015625 320.21624755859375 54.8482666015625 360.1123046875Q54.8482666015625 418.94384765625 99.41995239257812 458.51971435546875Q143.99163818359375 498.0955810546875 222.5113525390625 498.0955810546875Q268.135009765625 498.0955810546875 306.91876220703125 482.75567626953125Q345.7025146484375 467.415771484375 373.6463623046875 443.471923828125L335.775390625 395.50537109375Q310.303466796875 413.60931396484375 283.303466796875 423.8213806152344Q256.303466796875 434.033447265625 223.4552001953125 434.033447265625Q177.4384765625 434.033447265625 155.69415283203125 412.8130187988281Q133.9498291015625 391.59259033203125 133.9498291015625 364.3201904296875Q133.9498291015625 341.94384765625 147.18997192382812 327.3076477050781Q160.43011474609375 312.67144775390625 183.72222900390625 302.0113525390625Q207.01434326171875 291.35125732421875 237.1182861328125 280.71923828125Q275.1182861328125 266.82318115234375 309.54241943359375 249.4832763671875Q343.966552734375 232.14337158203125 365.39068603515625 204.5394287109375Q386.8148193359375 176.93548583984375 386.8148193359375 132.5113525390625Q386.8148193359375 93.0955810546875 366.4229431152344 60.335723876953125Q346.03106689453125 27.57586669921875 306.4313049316406 7.787933349609375Q266.83154296875 -12 209.471923828125 -12Z" fill="#6F6E69"/></g><g transform="translate(743.24,450.00) scale(0.046,-0.046)"><path d="M67.359619140625 -169.8709716796875 47.2640380859375 -121.584228515625Q89.93548583984375 -102.8482666015625 113.79928588867188 -70.6123046875Q137.6630859375 -38.3763427734375 137.29510498046875 2.415771484375L128.44683837890625 76.2867431640625L168.7025146484375 16.25567626953125Q160.49462890625 6.6236572265625 149.7867431640625 2.8876953125Q139.078857421875 -0.8482666015625 127.135009765625 -0.8482666015625Q103.303466796875 -0.8482666015625 85.44384765625 13.855438232421875Q67.584228515625 28.55914306640625 67.584228515625 56.49462890625Q67.584228515625 83.326171875 86.07586669921875 98.58184814453125Q104.5675048828125 113.8375244140625 128.60693359375 113.8375244140625Q161.854248046875 113.8375244140625 180.10992431640625 88.32199096679688Q198.3656005859375 62.80645751953125 198.3656005859375 17.247314453125Q198.3656005859375 -47.36798095703125 163.21804809570312 -96.0675048828125Q128.07049560546875 -144.76702880859375 67.359619140625 -169.8709716796875Z" fill="#6F6E69"/></g><g transform="translate(754.70,450.00) scale(0.046,-0.046)"><path d="" fill="#6F6E69"/></g><g transform="translate(763.90,450.00) scale(0.046,-0.046)"><path d="M81.89348931841302 0V485.9732451678535H164.0262461851475V0ZM122.5113525390625 586.0167236328125Q98.83990478515625 586.0167236328125 83.26821899414062 600.9844665527344Q67.696533203125 615.9522094726562 67.696533203125 640.415771484375Q67.696533203125 664.247314453125 83.26821899414062 678.8990478515625Q98.83990478515625 693.55078125 122.5113525390625 693.55078125Q146.8148193359375 693.55078125 162.07049560546875 678.8990478515625Q177.326171875 664.247314453125 177.326171875 640.415771484375Q177.326171875 615.9522094726562 162.07049560546875 600.9844665527344Q146.8148193359375 586.0167236328125 122.5113525390625 586.0167236328125Z" fill="#6F6E69"/></g><g transform="translate(775.21,450.00) scale(0.046,-0.046)"><path d="M82.0167236328125 0V486.0955810546875H149.966552734375L156.910400390625 415.9832763671875H159.6463623046875Q194.7025146484375 450.67144775390625 233.83453369140625 474.3835144042969Q272.966552734375 498.0955810546875 322.7025146484375 498.0955810546875Q400.01434326171875 498.0955810546875 435.5663146972656 449.54779052734375Q471.1182861328125 401 471.1182861328125 308V0H388.864990234375V297.3763427734375Q388.864990234375 365.6009521484375 367.38470458984375 396.13739013671875Q345.9044189453125 426.673828125 297.1517333984375 426.673828125Q259.87933349609375 426.673828125 230.60693359375 407.8255615234375Q201.33453369140625 388.977294921875 164.27001953125 352.0167236328125V0Z" fill="#6F6E69"/></g><g transform="translate(800.38,450.00) scale(0.046,-0.046)"><path d="" fill="#6F6E69"/></g><g transform="translate(809.58,450.00) scale(0.046,-0.046)"><path d="M271.1517333984375 -12Q211.57586669921875 -12 160.13201904296875 18.051971435546875Q108.68817138671875 48.10394287109375 77.29629516601562 105.02389526367188Q45.9044189453125 161.94384765625 45.9044189453125 242.415771484375Q45.9044189453125 323.51971435546875 77.29629516601562 380.75567626953125Q108.68817138671875 437.99163818359375 160.13201904296875 468.0436096191406Q211.57586669921875 498.0955810546875 271.1517333984375 498.0955810546875Q330.72760009765625 498.0955810546875 381.8554382324219 468.0436096191406Q432.9832763671875 437.99163818359375 464.691162109375 380.75567626953125Q496.3990478515625 323.51971435546875 496.3990478515625 242.415771484375Q496.3990478515625 161.94384765625 464.691162109375 105.02389526367188Q432.9832763671875 48.10394287109375 381.8554382324219 18.051971435546875Q330.72760009765625 -12 271.1517333984375 -12ZM271.1517333984375 56.4779052734375Q312.95220947265625 56.4779052734375 344.752685546875 79.69415283203125Q376.55316162109375 102.910400390625 393.9814758300781 144.8148193359375Q411.4097900390625 186.71923828125 411.4097900390625 242.415771484375Q411.4097900390625 298.1123046875 393.9814758300781 340.3327331542969Q376.55316162109375 382.55316162109375 344.752685546875 406.0854187011719Q312.95220947265625 429.61767578125 271.1517333984375 429.61767578125Q229.35125732421875 429.61767578125 197.86679077148438 406.0854187011719Q166.38232421875 382.55316162109375 148.63800048828125 340.3327331542969Q130.8936767578125 298.1123046875 130.8936767578125 242.415771484375Q130.8936767578125 186.71923828125 148.63800048828125 144.8148193359375Q166.38232421875 102.910400390625 197.86679077148438 79.69415283203125Q229.35125732421875 56.4779052734375 271.1517333984375 56.4779052734375Z" fill="#6F6E69"/></g><g transform="translate(834.51,450.00) scale(0.046,-0.046)"><path d="M82.0167236328125 0V486.0955810546875H149.966552734375L156.910400390625 415.9832763671875H159.6463623046875Q194.7025146484375 450.67144775390625 233.83453369140625 474.3835144042969Q272.966552734375 498.0955810546875 322.7025146484375 498.0955810546875Q400.01434326171875 498.0955810546875 435.5663146972656 449.54779052734375Q471.1182861328125 401 471.1182861328125 308V0H388.864990234375V297.3763427734375Q388.864990234375 365.6009521484375 367.38470458984375 396.13739013671875Q345.9044189453125 426.673828125 297.1517333984375 426.673828125Q259.87933349609375 426.673828125 230.60693359375 407.8255615234375Q201.33453369140625 388.977294921875 164.27001953125 352.0167236328125V0Z" fill="#6F6E69"/></g><g transform="translate(859.67,450.00) scale(0.046,-0.046)"><path d="M279.3599186164802 -12Q213.83997965412004 -12 160.66002034587996 18.306663275686674Q107.48006103763987 48.61332655137335 76.4467446592065 105.53331637843337Q45.41342828077315 162.4533062054934 45.41342828077315 242.90661241098678Q45.41342828077315 322.1332655137335 77.06007121057985 379.2465920651068Q108.70671414038657 436.3599186164802 158.7733468972533 467.16658189216685Q208.83997965412004 497.9732451678535 264.9066124109868 497.9732451678535Q327.26653102746695 497.9732451678535 370.526500508647 469.71327568667346Q413.7864699898271 441.4533062054934 436.09313326551376 390.3066632756867Q458.39979654120043 339.16002034587996 458.39979654120043 270Q458.39979654120043 257.48006103763987 457.4798067141404 245.18677517802644Q456.5598168870804 232.89348931841303 453.94649033570704 220.8268565615463H104.34628687690743V285.6264496439471H384.24028484231945Q384.24028484231945 356.41342828077313 353.6668362156663 393.8735503560529Q323.0933875890132 431.3336724313327 266.1332655137335 431.3336724313327Q232.71983723296032 431.3336724313327 200.9997456765005 412.6602746693794Q169.2796541200407 393.9868769074262 148.49292980671413 352.7667853509664Q127.70620549338759 311.5466937945066 127.70620549338759 243.6799593082401Q127.70620549338759 181.81322482197356 149.44623601220752 139.89979654120043Q171.18626653102746 97.98636826042727 208.05300101729398 76.61963377416073Q244.91973550356053 55.2528992878942 288.71983723296034 55.2528992878942Q324.1998982706002 55.2528992878942 354.43992878942015 65.0262461851475Q384.6799593082401 74.7995930824008 409.6799593082401 91.57293997965412L439.6264496439471 37.67995930824008Q408.3331637843337 16 368.6998982706002 2.0Q329.06663275686674 -12 279.3599186164802 -12Z" fill="#6F6E69"/></g><g transform="translate(882.49,450.00) scale(0.046,-0.046)"><path d="" fill="#6F6E69"/></g><g transform="translate(891.69,450.00) scale(0.046,-0.046)"><path d="M82.0167236328125 -205.0728759765625V486.0955810546875H149.966552734375L156.910400390625 429.9832763671875H159.6463623046875Q192.7025146484375 457.87933349609375 232.62664794921875 477.9874572753906Q272.55078125 498.0955810546875 314.60693359375 498.0955810546875Q377.3990478515625 498.0955810546875 420.26702880859375 467.5436096191406Q463.135009765625 436.99163818359375 485.23895263671875 381.25567626953125Q507.3428955078125 325.51971435546875 507.3428955078125 250.415771484375Q507.3428955078125 167.57586669921875 477.6589050292969 108.971923828125Q447.97491455078125 50.36798095703125 400.1589050292969 19.183990478515625Q352.3428955078125 -12 296.8148193359375 -12Q263.91876220703125 -12 229.7305908203125 2.89605712890625Q195.54241943359375 17.7921142578125 162.0621337890625 44.3201904296875L164.27001953125 -40.528076171875V-205.0728759765625ZM282.6236572265625 57.2138671875Q322.8482666015625 57.2138671875 354.38470458984375 80.27420043945312Q385.921142578125 103.33453369140625 404.13739013671875 146.50299072265625Q422.3536376953125 189.67144775390625 422.3536376953125 249.6798095703125Q422.3536376953125 303.3201904296875 409.2974853515625 343.6726379394531Q396.2413330078125 384.02508544921875 368.1009521484375 406.4533996582031Q339.9605712890625 428.8817138671875 294.2078857421875 428.8817138671875Q263.83154296875 428.8817138671875 232.03106689453125 412.3494567871094Q200.2305908203125 395.81719970703125 164.27001953125 362.5447998046875V107.7586669921875Q197.59857177734375 80.22222900390625 228.31900024414062 68.71804809570312Q259.0394287109375 57.2138671875 282.6236572265625 57.2138671875Z" fill="#6F6E69"/></g><g transform="translate(917.22,450.00) scale(0.046,-0.046)"><path d="M169.14638860630723 -9.226653102746694Q138.19989827060022 -9.226653102746694 118.91998982706002 3.4066124109867753Q99.64008138351984 16.039877924720244 90.76678535096643 40.46642929806714Q81.89348931841302 64.89298067141404 81.89348931841302 100.15951169888098V712.1867751780264H164.0262461851475V94.15951169888098Q164.0262461851475 74.47955239064089 171.2528992878942 66.86622583926754Q178.4795523906409 59.2528992878942 188.4795523906409 59.2528992878942Q192.09287894201424 59.2528992878942 195.59287894201424 59.7528992878942Q199.09287894201424 60.2528992878942 205.09287894201424 61.2528992878942L216.61281790437437 -0.7733468972533062Q208.15951169888098 -4.386673448626653 196.33290946083417 -6.806663275686674Q184.50630722278737 -9.226653102746694 169.14638860630723 -9.226653102746694Z" fill="#6F6E69"/></g><g transform="translate(928.95,450.00) scale(0.046,-0.046)"><path d="M194.3200406917599 -12Q153.64008138351983 -12 121.2200915564598 4.259969481180061Q88.8001017293998 20.519938962360122 70.10676500508647 51.473245167853506Q51.41342828077315 82.4265513733469 51.41342828077315 126.1998982706002Q51.41342828077315 208.03987792472026 123.4268056968464 250.1532044760936Q195.44018311291964 292.26653102746695 350.6935910478128 309.03987792472026Q350.46693794506615 339.4533062054934 341.96693794506615 367.0267548321465Q333.46693794506615 394.60020345879957 311.45356052899285 411.7402848423194Q289.4401831129196 428.8803662258393 249.86673448626652 428.8803662258393Q208.06663275686674 428.8803662258393 171.0532553407935 413.36698880976604Q134.03987792472026 397.8536113936928 104.90661241098678 379.01363173957276L72.96012207527976 435.3599186164802Q95.32004069175991 450.4265513733469 125.0 464.9265513733469Q154.6799593082401 479.4265513733469 189.90661241098678 488.6998982706002Q225.13326551373348 497.9732451678535 264.1332655137335 497.9732451678535Q323.1998982706002 497.9732451678535 360.41317395727367 473.2799084435402Q397.6264496439471 448.58657171922687 415.22639877924723 403.5999491353001Q432.8263479145473 358.61332655137335 432.8263479145473 297.73346897253305V0H364.50681586978635L358.05350966429296 57.86673448626653H354.82685656154626Q319.6668362156663 29.093387589013226 279.7667853509664 8.546693794506613Q239.86673448626652 -12 194.3200406917599 -12ZM217.1731434384537 56.4795523906409Q252.58657171922687 56.4795523906409 284.08001017294 72.26627670396745Q315.5734486266531 88.053001017294 350.6935910478128 118.85310274669379V249.9202441505595Q269 240.3735503560529 221.29984740590032 224.47349949135298Q173.59969481180062 208.5734486266531 153.03962360122074 185.6267039674466Q132.4795523906409 162.6799593082401 132.4795523906409 131.49318413021362Q132.4795523906409 91.21302136317397 157.31297049847404 73.84628687690743Q182.14638860630723 56.4795523906409 217.1731434384537 56.4795523906409Z" fill="#6F6E69"/></g><g transform="translate(952.13,450.00) scale(0.046,-0.046)"><path d="M275.3599186164802 -12Q210.06663275686674 -12 158.19333672431333 18.113326551373348Q106.32004069175991 48.226653102746695 76.1733977619532 105.14664292980672Q46.02675483214649 162.06663275686674 46.02675483214649 242.29328585961343Q46.02675483214649 323.51993896236013 78.48006103763987 380.6332655137335Q110.93336724313326 437.7465920651068 164.33997965412004 467.8599186164802Q217.74659206510682 497.9732451678535 279.6532044760936 497.9732451678535Q327.81322482197356 497.9732451678535 362.34654120040693 481.89323499491354Q396.8798575788403 465.81322482197356 422.106510681587 441.03987792472026L381.41342828077313 389.9202441505595Q363.0933875890132 408.01363173957276 338.7266531027467 418.7536622583927Q314.3599186164802 429.49369277721263 283.3331637843337 429.49369277721263Q239.69308240081384 429.49369277721263 205.43967446592063 405.90030518819935Q171.18626653102746 382.30691759918614 150.9795523906409 340.393489318413Q130.77283825025432 298.48006103763987 130.77283825025432 242.29328585961343Q130.77283825025432 186.71983723296032 149.8995422177009 144.9997456765005Q169.0262461851475 103.27965412004069 202.972990844354 79.8796032553408Q236.91973550356053 56.4795523906409 282.106510681587 56.4795523906409Q315.7465920651068 56.4795523906409 344.7266531027467 69.21958290946084Q373.70671414038657 81.95961342828078 395.2534079348932 102.053001017294L431.03987792472026 51.54669379450661Q400.4265513733469 22.773346897253305 361.08657171922687 5.386673448626652Q321.7465920651068 -12 275.3599186164802 -12Z" fill="#6F6E69"/></g><g transform="translate(973.11,450.00) scale(0.046,-0.046)"><path d="M279.3599186164802 -12Q213.83997965412004 -12 160.66002034587996 18.306663275686674Q107.48006103763987 48.61332655137335 76.4467446592065 105.53331637843337Q45.41342828077315 162.4533062054934 45.41342828077315 242.90661241098678Q45.41342828077315 322.1332655137335 77.06007121057985 379.2465920651068Q108.70671414038657 436.3599186164802 158.7733468972533 467.16658189216685Q208.83997965412004 497.9732451678535 264.9066124109868 497.9732451678535Q327.26653102746695 497.9732451678535 370.526500508647 469.71327568667346Q413.7864699898271 441.4533062054934 436.09313326551376 390.3066632756867Q458.39979654120043 339.16002034587996 458.39979654120043 270Q458.39979654120043 257.48006103763987 457.4798067141404 245.18677517802644Q456.5598168870804 232.89348931841303 453.94649033570704 220.8268565615463H104.34628687690743V285.6264496439471H384.24028484231945Q384.24028484231945 356.41342828077313 353.6668362156663 393.8735503560529Q323.0933875890132 431.3336724313327 266.1332655137335 431.3336724313327Q232.71983723296032 431.3336724313327 200.9997456765005 412.6602746693794Q169.2796541200407 393.9868769074262 148.49292980671413 352.7667853509664Q127.70620549338759 311.5466937945066 127.70620549338759 243.6799593082401Q127.70620549338759 181.81322482197356 149.44623601220752 139.89979654120043Q171.18626653102746 97.98636826042727 208.05300101729398 76.61963377416073Q244.91973550356053 55.2528992878942 288.71983723296034 55.2528992878942Q324.1998982706002 55.2528992878942 354.43992878942015 65.0262461851475Q384.6799593082401 74.7995930824008 409.6799593082401 91.57293997965412L439.6264496439471 37.67995930824008Q408.3331637843337 16 368.6998982706002 2.0Q329.06663275686674 -12 279.3599186164802 -12Z" fill="#6F6E69"/></g><g transform="translate(995.92,450.00) scale(0.046,-0.046)"><path d="M124.60693359375 -12Q100.5675048828125 -12 82.81182861328125 5.543609619140625Q65.05615234375 23.08721923828125 65.05615234375 50.2867431640625Q65.05615234375 79.1182861328125 82.81182861328125 96.4779052734375Q100.5675048828125 113.8375244140625 124.60693359375 113.8375244140625Q149.6463623046875 113.8375244140625 166.90203857421875 96.4779052734375Q184.15771484375 79.1182861328125 184.15771484375 50.2867431640625Q184.15771484375 23.08721923828125 166.90203857421875 5.543609619140625Q149.6463623046875 -12 124.60693359375 -12Z" fill="#6F6E69"/></g>
</svg>
